<svg xmlns="http://www.w3.org/2000/svg" viewBox="0 0 180 40" width="180" height="40">
  <!-- Background rectangle -->
  <rect width="180" height="40" rx="4" fill="#00BFA5" />
  
  <!-- Brain icon -->
  <path d="M35 15c-1.1 0-2 0.9-2 2 0 0.4 0.1 0.7 0.3 1H33c-0.6 0-1 0.4-1 1s0.4 1 1 1h0.3c-0.2 0.3-0.3 0.6-0.3 1 0 1.1 0.9 2 2 2h1v-8h-1z" fill="#FFFFFF" />
  <path d="M45 15h-1v8h1c1.1 0 2-0.9 2-2 0-0.4-0.1-0.7-0.3-1H47c0.6 0 1-0.4 1-1s-0.4-1-1-1h-0.3c0.2-0.3 0.3-0.6 0.3-1 0-1.1-0.9-2-2-2z" fill="#FFFFFF" />
  <path d="M36 14v1h1v1h-1v1h1v1h-1v1h1v1h-1v1h1v1h-1v1h8v-1h-1v-1h1v-1h-1v-1h1v-1h-1v-1h1v-1h-1v-1h1v-1h-8z" fill="#FFFFFF" />
  <path d="M38 16c-0.6 0-1 0.4-1 1s0.4 1 1 1 1-0.4 1-1-0.4-1-1-1zM42 16c-0.6 0-1 0.4-1 1s0.4 1 1 1 1-0.4 1-1-0.4-1-1-1zM40 19c-1.1 0-2 0.9-2 2h4c0-1.1-0.9-2-2-2z" fill="#FFFFFF" />
  
  <!-- Text -->
  <text x="60" y="25" font-family="Arial, sans-serif" font-size="16" font-weight="bold" fill="#FFFFFF">BehaviorMind</text>
  
  <!-- Wave Lines for Activity/Mind -->
  <path d="M165 15c-2 0-3 2-5 2s-3-2-5-2-3 2-5 2-3-2-5-2" stroke="#FFFFFF" stroke-width="1.5" fill="none" />
  <path d="M165 20c-2 0-3 2-5 2s-3-2-5-2-3 2-5 2-3-2-5-2" stroke="#FFFFFF" stroke-width="1.5" fill="none" />
  <path d="M165 25c-2 0-3 2-5 2s-3-2-5-2-3 2-5 2-3-2-5-2" stroke="#FFFFFF" stroke-width="1.5" fill="none" />
</svg>
